%TF.GenerationSoftware,KiCad,Pcbnew,6.0.6*%
%TF.CreationDate,2022-06-29T17:15:03-04:00*%
%TF.ProjectId,tcke805,74636b65-3830-4352-9e6b-696361645f70,rev?*%
%TF.SameCoordinates,Original*%
%TF.FileFunction,Legend,Bot*%
%TF.FilePolarity,Positive*%
%FSLAX46Y46*%
G04 Gerber Fmt 4.6, Leading zero omitted, Abs format (unit mm)*
G04 Created by KiCad (PCBNEW 6.0.6) date 2022-06-29 17:15:03*
%MOMM*%
%LPD*%
G01*
G04 APERTURE LIST*
%ADD10C,0.150000*%
G04 APERTURE END LIST*
D10*
X114514095Y-69778571D02*
X114371238Y-69826190D01*
X114323619Y-69873809D01*
X114276000Y-69969047D01*
X114276000Y-70111904D01*
X114323619Y-70207142D01*
X114371238Y-70254761D01*
X114466476Y-70302380D01*
X114847428Y-70302380D01*
X114847428Y-69302380D01*
X114514095Y-69302380D01*
X114418857Y-69350000D01*
X114371238Y-69397619D01*
X114323619Y-69492857D01*
X114323619Y-69588095D01*
X114371238Y-69683333D01*
X114418857Y-69730952D01*
X114514095Y-69778571D01*
X114847428Y-69778571D01*
X113847428Y-69921428D02*
X113085523Y-69921428D01*
X113466476Y-70302380D02*
X113466476Y-69540476D01*
X112466476Y-70302380D02*
X112561714Y-70254761D01*
X112609333Y-70207142D01*
X112656952Y-70111904D01*
X112656952Y-69826190D01*
X112609333Y-69730952D01*
X112561714Y-69683333D01*
X112466476Y-69635714D01*
X112323619Y-69635714D01*
X112228380Y-69683333D01*
X112180761Y-69730952D01*
X112133142Y-69826190D01*
X112133142Y-70111904D01*
X112180761Y-70207142D01*
X112228380Y-70254761D01*
X112323619Y-70302380D01*
X112466476Y-70302380D01*
X111276000Y-69635714D02*
X111276000Y-70302380D01*
X111704571Y-69635714D02*
X111704571Y-70159523D01*
X111656952Y-70254761D01*
X111561714Y-70302380D01*
X111418857Y-70302380D01*
X111323619Y-70254761D01*
X111276000Y-70207142D01*
X110942666Y-69635714D02*
X110561714Y-69635714D01*
X110799809Y-69302380D02*
X110799809Y-70159523D01*
X110752190Y-70254761D01*
X110656952Y-70302380D01*
X110561714Y-70302380D01*
X107791095Y-69778571D02*
X107648238Y-69826190D01*
X107600619Y-69873809D01*
X107553000Y-69969047D01*
X107553000Y-70111904D01*
X107600619Y-70207142D01*
X107648238Y-70254761D01*
X107743476Y-70302380D01*
X108124428Y-70302380D01*
X108124428Y-69302380D01*
X107791095Y-69302380D01*
X107695857Y-69350000D01*
X107648238Y-69397619D01*
X107600619Y-69492857D01*
X107600619Y-69588095D01*
X107648238Y-69683333D01*
X107695857Y-69730952D01*
X107791095Y-69778571D01*
X108124428Y-69778571D01*
X107124428Y-69921428D02*
X106362523Y-69921428D01*
X106743476Y-70302380D02*
X106743476Y-69540476D01*
X105886333Y-70302380D02*
X105886333Y-69635714D01*
X105886333Y-69302380D02*
X105933952Y-69350000D01*
X105886333Y-69397619D01*
X105838714Y-69350000D01*
X105886333Y-69302380D01*
X105886333Y-69397619D01*
X105410142Y-69635714D02*
X105410142Y-70302380D01*
X105410142Y-69730952D02*
X105362523Y-69683333D01*
X105267285Y-69635714D01*
X105124428Y-69635714D01*
X105029190Y-69683333D01*
X104981571Y-69778571D01*
X104981571Y-70302380D01*
X112077500Y-66040000D02*
X114236500Y-66040000D01*
X105219500Y-73660000D02*
X107378500Y-73660000D01*
X111823500Y-73660000D02*
X113982500Y-73660000D01*
X110275619Y-73588571D02*
X110132761Y-73636190D01*
X110085142Y-73683809D01*
X110037523Y-73779047D01*
X110037523Y-73921904D01*
X110085142Y-74017142D01*
X110132761Y-74064761D01*
X110228000Y-74112380D01*
X110608952Y-74112380D01*
X110608952Y-73112380D01*
X110275619Y-73112380D01*
X110180380Y-73160000D01*
X110132761Y-73207619D01*
X110085142Y-73302857D01*
X110085142Y-73398095D01*
X110132761Y-73493333D01*
X110180380Y-73540952D01*
X110275619Y-73588571D01*
X110608952Y-73588571D01*
X109608952Y-73731428D02*
X108847047Y-73731428D01*
X104902000Y-66040000D02*
X107061000Y-66040000D01*
X110608904Y-66441580D02*
X111085095Y-66441580D01*
X111085095Y-65441580D01*
X110275571Y-65917771D02*
X109942238Y-65917771D01*
X109799380Y-66441580D02*
X110275571Y-66441580D01*
X110275571Y-65441580D01*
X109799380Y-65441580D01*
X109370809Y-66441580D02*
X109370809Y-65441580D01*
X109132714Y-65441580D01*
X108989857Y-65489200D01*
X108894619Y-65584438D01*
X108847000Y-65679676D01*
X108799380Y-65870152D01*
X108799380Y-66013009D01*
X108847000Y-66203485D01*
X108894619Y-66298723D01*
X108989857Y-66393961D01*
X109132714Y-66441580D01*
X109370809Y-66441580D01*
X108370809Y-66060628D02*
X107608904Y-66060628D01*
X107989857Y-66441580D02*
X107989857Y-65679676D01*
M02*
