%TF.GenerationSoftware,KiCad,Pcbnew,6.0.6*%
%TF.CreationDate,2022-06-29T17:15:03-04:00*%
%TF.ProjectId,tcke805,74636b65-3830-4352-9e6b-696361645f70,rev?*%
%TF.SameCoordinates,Original*%
%TF.FileFunction,Legend,Top*%
%TF.FilePolarity,Positive*%
%FSLAX46Y46*%
G04 Gerber Fmt 4.6, Leading zero omitted, Abs format (unit mm)*
G04 Created by KiCad (PCBNEW 6.0.6) date 2022-06-29 17:15:03*
%MOMM*%
%LPD*%
G01*
G04 APERTURE LIST*
%ADD10C,0.150000*%
%ADD11C,0.120000*%
G04 APERTURE END LIST*
D10*
X114752380Y-70786523D02*
X114704761Y-70881761D01*
X114657142Y-70929380D01*
X114561904Y-70977000D01*
X114276190Y-70977000D01*
X114180952Y-70929380D01*
X114133333Y-70881761D01*
X114085714Y-70786523D01*
X114085714Y-70643666D01*
X114133333Y-70548428D01*
X114180952Y-70500809D01*
X114276190Y-70453190D01*
X114561904Y-70453190D01*
X114657142Y-70500809D01*
X114704761Y-70548428D01*
X114752380Y-70643666D01*
X114752380Y-70786523D01*
X114085714Y-69596047D02*
X114752380Y-69596047D01*
X114085714Y-70024619D02*
X114609523Y-70024619D01*
X114704761Y-69977000D01*
X114752380Y-69881761D01*
X114752380Y-69738904D01*
X114704761Y-69643666D01*
X114657142Y-69596047D01*
X114085714Y-69262714D02*
X114085714Y-68881761D01*
X113752380Y-69119857D02*
X114609523Y-69119857D01*
X114704761Y-69072238D01*
X114752380Y-68977000D01*
X114752380Y-68881761D01*
X105084619Y-70302380D02*
X105084619Y-69635714D01*
X105084619Y-69302380D02*
X105037000Y-69350000D01*
X105084619Y-69397619D01*
X105132238Y-69350000D01*
X105084619Y-69302380D01*
X105084619Y-69397619D01*
X105560809Y-69635714D02*
X105560809Y-70302380D01*
X105560809Y-69730952D02*
X105608428Y-69683333D01*
X105703666Y-69635714D01*
X105846523Y-69635714D01*
X105941761Y-69683333D01*
X105989380Y-69778571D01*
X105989380Y-70302380D01*
X116467095Y-64206380D02*
X115990904Y-64206380D01*
X115990904Y-63206380D01*
X116800428Y-63682571D02*
X117133761Y-63682571D01*
X117276619Y-64206380D02*
X116800428Y-64206380D01*
X116800428Y-63206380D01*
X117276619Y-63206380D01*
X117705190Y-64206380D02*
X117705190Y-63206380D01*
X117943285Y-63206380D01*
X118086142Y-63254000D01*
X118181380Y-63349238D01*
X118229000Y-63444476D01*
X118276619Y-63634952D01*
X118276619Y-63777809D01*
X118229000Y-63968285D01*
X118181380Y-64063523D01*
X118086142Y-64158761D01*
X117943285Y-64206380D01*
X117705190Y-64206380D01*
X118705190Y-63825428D02*
X119467095Y-63825428D01*
X119086142Y-64206380D02*
X119086142Y-63444476D01*
X101227095Y-64206380D02*
X100750904Y-64206380D01*
X100750904Y-63206380D01*
X101560428Y-63682571D02*
X101893761Y-63682571D01*
X102036619Y-64206380D02*
X101560428Y-64206380D01*
X101560428Y-63206380D01*
X102036619Y-63206380D01*
X102465190Y-64206380D02*
X102465190Y-63206380D01*
X102703285Y-63206380D01*
X102846142Y-63254000D01*
X102941380Y-63349238D01*
X102989000Y-63444476D01*
X103036619Y-63634952D01*
X103036619Y-63777809D01*
X102989000Y-63968285D01*
X102941380Y-64063523D01*
X102846142Y-64158761D01*
X102703285Y-64206380D01*
X102465190Y-64206380D01*
X103465190Y-63825428D02*
X104227095Y-63825428D01*
X103846142Y-64206380D02*
X103846142Y-63444476D01*
X117308380Y-76001571D02*
X117451238Y-76049190D01*
X117498857Y-76096809D01*
X117546476Y-76192047D01*
X117546476Y-76334904D01*
X117498857Y-76430142D01*
X117451238Y-76477761D01*
X117356000Y-76525380D01*
X116975047Y-76525380D01*
X116975047Y-75525380D01*
X117308380Y-75525380D01*
X117403619Y-75573000D01*
X117451238Y-75620619D01*
X117498857Y-75715857D01*
X117498857Y-75811095D01*
X117451238Y-75906333D01*
X117403619Y-75953952D01*
X117308380Y-76001571D01*
X116975047Y-76001571D01*
X117975047Y-76144428D02*
X118736952Y-76144428D01*
X102195380Y-76001571D02*
X102338238Y-76049190D01*
X102385857Y-76096809D01*
X102433476Y-76192047D01*
X102433476Y-76334904D01*
X102385857Y-76430142D01*
X102338238Y-76477761D01*
X102243000Y-76525380D01*
X101862047Y-76525380D01*
X101862047Y-75525380D01*
X102195380Y-75525380D01*
X102290619Y-75573000D01*
X102338238Y-75620619D01*
X102385857Y-75715857D01*
X102385857Y-75811095D01*
X102338238Y-75906333D01*
X102290619Y-75953952D01*
X102195380Y-76001571D01*
X101862047Y-76001571D01*
X102862047Y-76144428D02*
X103623952Y-76144428D01*
%TO.C,U1*%
X108712095Y-69048380D02*
X108712095Y-69857904D01*
X108759714Y-69953142D01*
X108807333Y-70000761D01*
X108902571Y-70048380D01*
X109093047Y-70048380D01*
X109188285Y-70000761D01*
X109235904Y-69953142D01*
X109283523Y-69857904D01*
X109283523Y-69048380D01*
X110283523Y-70048380D02*
X109712095Y-70048380D01*
X109997809Y-70048380D02*
X109997809Y-69048380D01*
X109902571Y-69191238D01*
X109807333Y-69286476D01*
X109712095Y-69334095D01*
%TO.C,R1*%
X112355333Y-67000380D02*
X112022000Y-66524190D01*
X111783904Y-67000380D02*
X111783904Y-66000380D01*
X112164857Y-66000380D01*
X112260095Y-66048000D01*
X112307714Y-66095619D01*
X112355333Y-66190857D01*
X112355333Y-66333714D01*
X112307714Y-66428952D01*
X112260095Y-66476571D01*
X112164857Y-66524190D01*
X111783904Y-66524190D01*
X113307714Y-67000380D02*
X112736285Y-67000380D01*
X113022000Y-67000380D02*
X113022000Y-66000380D01*
X112926761Y-66143238D01*
X112831523Y-66238476D01*
X112736285Y-66286095D01*
%TO.C,C3*%
X107783333Y-66872142D02*
X107735714Y-66919761D01*
X107592857Y-66967380D01*
X107497619Y-66967380D01*
X107354761Y-66919761D01*
X107259523Y-66824523D01*
X107211904Y-66729285D01*
X107164285Y-66538809D01*
X107164285Y-66395952D01*
X107211904Y-66205476D01*
X107259523Y-66110238D01*
X107354761Y-66015000D01*
X107497619Y-65967380D01*
X107592857Y-65967380D01*
X107735714Y-66015000D01*
X107783333Y-66062619D01*
X108116666Y-65967380D02*
X108735714Y-65967380D01*
X108402380Y-66348333D01*
X108545238Y-66348333D01*
X108640476Y-66395952D01*
X108688095Y-66443571D01*
X108735714Y-66538809D01*
X108735714Y-66776904D01*
X108688095Y-66872142D01*
X108640476Y-66919761D01*
X108545238Y-66967380D01*
X108259523Y-66967380D01*
X108164285Y-66919761D01*
X108116666Y-66872142D01*
%TO.C,C2*%
X112355333Y-75795142D02*
X112307714Y-75842761D01*
X112164857Y-75890380D01*
X112069619Y-75890380D01*
X111926761Y-75842761D01*
X111831523Y-75747523D01*
X111783904Y-75652285D01*
X111736285Y-75461809D01*
X111736285Y-75318952D01*
X111783904Y-75128476D01*
X111831523Y-75033238D01*
X111926761Y-74938000D01*
X112069619Y-74890380D01*
X112164857Y-74890380D01*
X112307714Y-74938000D01*
X112355333Y-74985619D01*
X112736285Y-74985619D02*
X112783904Y-74938000D01*
X112879142Y-74890380D01*
X113117238Y-74890380D01*
X113212476Y-74938000D01*
X113260095Y-74985619D01*
X113307714Y-75080857D01*
X113307714Y-75176095D01*
X113260095Y-75318952D01*
X112688666Y-75890380D01*
X113307714Y-75890380D01*
%TO.C,C1*%
X105751333Y-75668142D02*
X105703714Y-75715761D01*
X105560857Y-75763380D01*
X105465619Y-75763380D01*
X105322761Y-75715761D01*
X105227523Y-75620523D01*
X105179904Y-75525285D01*
X105132285Y-75334809D01*
X105132285Y-75191952D01*
X105179904Y-75001476D01*
X105227523Y-74906238D01*
X105322761Y-74811000D01*
X105465619Y-74763380D01*
X105560857Y-74763380D01*
X105703714Y-74811000D01*
X105751333Y-74858619D01*
X106703714Y-75763380D02*
X106132285Y-75763380D01*
X106418000Y-75763380D02*
X106418000Y-74763380D01*
X106322761Y-74906238D01*
X106227523Y-75001476D01*
X106132285Y-75049095D01*
%TO.C,J3*%
X103124000Y-72390000D02*
X101092000Y-72390000D01*
X103124000Y-74930000D02*
X101092000Y-74930000D01*
X101092000Y-72390000D02*
G75*
G03*
X101092000Y-74930000I0J-1270000D01*
G01*
X103124000Y-74930000D02*
G75*
G03*
X103124000Y-72390000I0J1270000D01*
G01*
%TO.C,J1*%
X103124000Y-68580000D02*
X101092000Y-68580000D01*
X103124000Y-71120000D02*
X101092000Y-71120000D01*
X101092000Y-68580000D02*
G75*
G03*
X101092000Y-71120000I0J-1270000D01*
G01*
X103124000Y-71120000D02*
G75*
G03*
X103124000Y-68580000I0J1270000D01*
G01*
%TO.C,J5*%
X103124000Y-64770000D02*
X101092000Y-64770000D01*
X103124000Y-67310000D02*
X101092000Y-67310000D01*
X101092000Y-64770000D02*
G75*
G03*
X101092000Y-67310000I0J-1270000D01*
G01*
X103124000Y-67310000D02*
G75*
G03*
X103124000Y-64770000I0J1270000D01*
G01*
%TO.C,J4*%
X116586000Y-74930000D02*
X118618000Y-74930000D01*
X116586000Y-72390000D02*
X118618000Y-72390000D01*
X118618000Y-74930000D02*
G75*
G03*
X118618000Y-72390000I0J1270000D01*
G01*
X116586000Y-72390000D02*
G75*
G03*
X116586000Y-74930000I0J-1270000D01*
G01*
%TO.C,J2*%
X116586000Y-71120000D02*
X118618000Y-71120000D01*
X116586000Y-68580000D02*
X118618000Y-68580000D01*
X118618000Y-71120000D02*
G75*
G03*
X118618000Y-68580000I0J1270000D01*
G01*
X116586000Y-68580000D02*
G75*
G03*
X116586000Y-71120000I0J-1270000D01*
G01*
%TO.C,J6*%
X116586000Y-67310000D02*
X118618000Y-67310000D01*
X116586000Y-64770000D02*
X118618000Y-64770000D01*
X118618000Y-67310000D02*
G75*
G03*
X118618000Y-64770000I0J1270000D01*
G01*
X116586000Y-64770000D02*
G75*
G03*
X116586000Y-67310000I0J-1270000D01*
G01*
%TO.C,U1*%
X110220000Y-73990000D02*
X110820000Y-73990000D01*
X108220000Y-70790000D02*
X107620000Y-70790000D01*
X107620000Y-73690000D02*
X107620000Y-73990000D01*
X107620000Y-71090000D02*
X107620000Y-70790000D01*
X110820000Y-71090000D02*
X110820000Y-70790000D01*
X110220000Y-70790000D02*
X110820000Y-70790000D01*
X108220000Y-73990000D02*
X107620000Y-73990000D01*
X110820000Y-73690000D02*
X110820000Y-73990000D01*
X106943607Y-71090000D02*
G75*
G03*
X106943607Y-71090000I-223607J0D01*
G01*
D11*
%TO.C,R1*%
X113257000Y-69315064D02*
X113257000Y-68860936D01*
X111787000Y-69315064D02*
X111787000Y-68860936D01*
%TO.C,C3*%
X107809420Y-67435000D02*
X108090580Y-67435000D01*
X107809420Y-68455000D02*
X108090580Y-68455000D01*
%TO.C,C2*%
X113032000Y-72757420D02*
X113032000Y-73038580D01*
X112012000Y-72757420D02*
X112012000Y-73038580D01*
%TO.C,C1*%
X106428000Y-72757420D02*
X106428000Y-73038580D01*
X105408000Y-72757420D02*
X105408000Y-73038580D01*
%TD*%
M02*
