%TF.GenerationSoftware,KiCad,Pcbnew,6.0.6*%
%TF.CreationDate,2022-06-29T17:15:03-04:00*%
%TF.ProjectId,tcke805,74636b65-3830-4352-9e6b-696361645f70,rev?*%
%TF.SameCoordinates,Original*%
%TF.FileFunction,Copper,L1,Top*%
%TF.FilePolarity,Positive*%
%FSLAX46Y46*%
G04 Gerber Fmt 4.6, Leading zero omitted, Abs format (unit mm)*
G04 Created by KiCad (PCBNEW 6.0.6) date 2022-06-29 17:15:03*
%MOMM*%
%LPD*%
G01*
G04 APERTURE LIST*
G04 Aperture macros list*
%AMRoundRect*
0 Rectangle with rounded corners*
0 $1 Rounding radius*
0 $2 $3 $4 $5 $6 $7 $8 $9 X,Y pos of 4 corners*
0 Add a 4 corners polygon primitive as box body*
4,1,4,$2,$3,$4,$5,$6,$7,$8,$9,$2,$3,0*
0 Add four circle primitives for the rounded corners*
1,1,$1+$1,$2,$3*
1,1,$1+$1,$4,$5*
1,1,$1+$1,$6,$7*
1,1,$1+$1,$8,$9*
0 Add four rect primitives between the rounded corners*
20,1,$1+$1,$2,$3,$4,$5,0*
20,1,$1+$1,$4,$5,$6,$7,0*
20,1,$1+$1,$6,$7,$8,$9,0*
20,1,$1+$1,$8,$9,$2,$3,0*%
%AMFreePoly0*
4,1,45,-0.106464,1.903536,-0.105000,1.900000,-0.105000,1.205000,0.105000,1.205000,0.105000,1.900000,0.106464,1.903536,0.110000,1.905000,0.390000,1.905000,0.393536,1.903536,0.395000,1.900000,0.395000,1.205000,0.825000,1.205000,0.828536,1.203536,0.830000,1.200000,0.830000,-1.200000,0.828536,-1.203536,0.825000,-1.205000,0.395000,-1.205000,0.395000,-1.900000,0.393536,-1.903536,
0.390000,-1.905000,0.110000,-1.905000,0.106464,-1.903536,0.105000,-1.900000,0.105000,-1.205000,-0.105000,-1.205000,-0.105000,-1.900000,-0.106464,-1.903536,-0.110000,-1.905000,-0.390000,-1.905000,-0.393536,-1.903536,-0.395000,-1.900000,-0.395000,-1.205000,-0.825000,-1.205000,-0.828536,-1.203536,-0.830000,-1.200000,-0.830000,1.200000,-0.828536,1.203536,-0.825000,1.205000,-0.395000,1.205000,
-0.395000,1.900000,-0.393536,1.903536,-0.390000,1.905000,-0.110000,1.905000,-0.106464,1.903536,-0.106464,1.903536,$1*%
G04 Aperture macros list end*
%TA.AperFunction,ComponentPad*%
%ADD10O,4.064000X2.032000*%
%TD*%
%TA.AperFunction,SMDPad,CuDef*%
%ADD11RoundRect,0.028000X-0.397000X-0.112000X0.397000X-0.112000X0.397000X0.112000X-0.397000X0.112000X0*%
%TD*%
%TA.AperFunction,SMDPad,CuDef*%
%ADD12FreePoly0,0.000000*%
%TD*%
%TA.AperFunction,SMDPad,CuDef*%
%ADD13RoundRect,0.250000X0.450000X-0.262500X0.450000X0.262500X-0.450000X0.262500X-0.450000X-0.262500X0*%
%TD*%
%TA.AperFunction,SMDPad,CuDef*%
%ADD14RoundRect,0.225000X-0.225000X-0.250000X0.225000X-0.250000X0.225000X0.250000X-0.225000X0.250000X0*%
%TD*%
%TA.AperFunction,SMDPad,CuDef*%
%ADD15RoundRect,0.225000X-0.250000X0.225000X-0.250000X-0.225000X0.250000X-0.225000X0.250000X0.225000X0*%
%TD*%
%TA.AperFunction,Conductor*%
%ADD16C,0.200000*%
%TD*%
G04 APERTURE END LIST*
D10*
%TO.P,J3,1,Pin_1*%
%TO.N,GND*%
X102108000Y-73660000D03*
%TD*%
%TO.P,J1,1,Pin_1*%
%TO.N,+5VA*%
X102108000Y-69850000D03*
%TD*%
%TO.P,J5,1,Pin_1*%
%TO.N,/LED+*%
X102108000Y-66040000D03*
%TD*%
%TO.P,J4,1,Pin_1*%
%TO.N,GND*%
X117602000Y-73660000D03*
%TD*%
%TO.P,J2,1,Pin_1*%
%TO.N,+5VP*%
X117602000Y-69850000D03*
%TD*%
%TO.P,J6,1,Pin_1*%
%TO.N,/LED+*%
X117602000Y-66040000D03*
%TD*%
D11*
%TO.P,U1,1,dV/dT*%
%TO.N,Net-(C3-Pad1)*%
X107745000Y-71390000D03*
%TO.P,U1,2,EN/UVLO*%
%TO.N,+5VA*%
X107745000Y-71890000D03*
%TO.P,U1,3,VIN*%
X107745000Y-72390000D03*
%TO.P,U1,4,VIN*%
X107745000Y-72890000D03*
%TO.P,U1,5,VIN*%
X107745000Y-73390000D03*
%TO.P,U1,6,VOUT*%
%TO.N,+5VP*%
X110695000Y-73390000D03*
%TO.P,U1,7,VOUT*%
X110695000Y-72890000D03*
%TO.P,U1,8,VOUT*%
X110695000Y-72390000D03*
%TO.P,U1,9,EFET*%
%TO.N,unconnected-(U1-Pad9)*%
X110695000Y-71890000D03*
%TO.P,U1,10,ILIM*%
%TO.N,Net-(R1-Pad1)*%
X110695000Y-71390000D03*
D12*
%TO.P,U1,11,GND*%
%TO.N,GND*%
X109220000Y-72390000D03*
%TD*%
D13*
%TO.P,R1,1*%
%TO.N,Net-(R1-Pad1)*%
X112522000Y-70000500D03*
%TO.P,R1,2*%
%TO.N,GND*%
X112522000Y-68175500D03*
%TD*%
D14*
%TO.P,C3,1*%
%TO.N,Net-(C3-Pad1)*%
X107175000Y-67945000D03*
%TO.P,C3,2*%
%TO.N,GND*%
X108725000Y-67945000D03*
%TD*%
D15*
%TO.P,C2,1*%
%TO.N,+5VP*%
X112522000Y-72123000D03*
%TO.P,C2,2*%
%TO.N,GND*%
X112522000Y-73673000D03*
%TD*%
%TO.P,C1,1*%
%TO.N,+5VA*%
X105918000Y-72123000D03*
%TO.P,C1,2*%
%TO.N,GND*%
X105918000Y-73673000D03*
%TD*%
D16*
%TO.N,Net-(C3-Pad1)*%
X107745000Y-71390000D02*
X107745000Y-69645000D01*
X107745000Y-69645000D02*
X107175000Y-69075000D01*
X107175000Y-69075000D02*
X107175000Y-67945000D01*
%TO.N,Net-(R1-Pad1)*%
X110695000Y-71390000D02*
X110695000Y-70661000D01*
X110695000Y-70661000D02*
X111355500Y-70000500D01*
X111355500Y-70000500D02*
X112522000Y-70000500D01*
%TD*%
%TA.AperFunction,Conductor*%
%TO.N,+5VP*%
G36*
X119948517Y-68327933D02*
G01*
X119996935Y-68337564D01*
X120033200Y-68352586D01*
X120065846Y-68374400D01*
X120093600Y-68402154D01*
X120115414Y-68434800D01*
X120130436Y-68471065D01*
X120140067Y-68519483D01*
X120142000Y-68539109D01*
X120142000Y-71160891D01*
X120140067Y-71180517D01*
X120130436Y-71228935D01*
X120115414Y-71265200D01*
X120093600Y-71297846D01*
X120065846Y-71325600D01*
X120033200Y-71347414D01*
X119996935Y-71362436D01*
X119948517Y-71372067D01*
X119928891Y-71374000D01*
X115570000Y-71374000D01*
X114112522Y-72831478D01*
X114097277Y-72843989D01*
X114056231Y-72871415D01*
X114019967Y-72886436D01*
X113971549Y-72896067D01*
X113951923Y-72898000D01*
X111760000Y-72898000D01*
X111760000Y-73700891D01*
X111758067Y-73720517D01*
X111748436Y-73768935D01*
X111733414Y-73805200D01*
X111711600Y-73837846D01*
X111683846Y-73865600D01*
X111651200Y-73887414D01*
X111614935Y-73902436D01*
X111566517Y-73912067D01*
X111546891Y-73914000D01*
X110499909Y-73914000D01*
X110480283Y-73912067D01*
X110431865Y-73902436D01*
X110395600Y-73887414D01*
X110362954Y-73865600D01*
X110335200Y-73837846D01*
X110313386Y-73805200D01*
X110298364Y-73768935D01*
X110288733Y-73720517D01*
X110286800Y-73700891D01*
X110286800Y-72476109D01*
X110288733Y-72456483D01*
X110298364Y-72408065D01*
X110313386Y-72371800D01*
X110335200Y-72339154D01*
X110362954Y-72311400D01*
X110395600Y-72289586D01*
X110431865Y-72274564D01*
X110480283Y-72264933D01*
X110499909Y-72263000D01*
X111658400Y-72263000D01*
X111658400Y-71333109D01*
X111660333Y-71313483D01*
X111669964Y-71265065D01*
X111684986Y-71228800D01*
X111706800Y-71196154D01*
X111734554Y-71168400D01*
X111767200Y-71146586D01*
X111803465Y-71131564D01*
X111851883Y-71121933D01*
X111871509Y-71120000D01*
X113842800Y-71120000D01*
X113842800Y-69687400D01*
X113844634Y-69668277D01*
X113853782Y-69621030D01*
X113868056Y-69585550D01*
X113894175Y-69545134D01*
X113906095Y-69530068D01*
X114994985Y-68395809D01*
X115010392Y-68382698D01*
X115052028Y-68353946D01*
X115089061Y-68338162D01*
X115138647Y-68328035D01*
X115158777Y-68326000D01*
X119928891Y-68326000D01*
X119948517Y-68327933D01*
G37*
%TD.AperFunction*%
%TD*%
%TA.AperFunction,Conductor*%
%TO.N,GND*%
G36*
X113346970Y-67058421D02*
G01*
X113387983Y-67066579D01*
X113433403Y-67085394D01*
X113457646Y-67101593D01*
X113492407Y-67136354D01*
X113508606Y-67160597D01*
X113527421Y-67206017D01*
X113535579Y-67247028D01*
X113538000Y-67271611D01*
X113538000Y-68618389D01*
X113535579Y-68642972D01*
X113527421Y-68683983D01*
X113508606Y-68729403D01*
X113492407Y-68753646D01*
X113457646Y-68788407D01*
X113433403Y-68804606D01*
X113387983Y-68823421D01*
X113346970Y-68831579D01*
X113322389Y-68834000D01*
X110490000Y-68834000D01*
X110490000Y-70142389D01*
X110487579Y-70166972D01*
X110479421Y-70207983D01*
X110460606Y-70253403D01*
X110444407Y-70277646D01*
X110409646Y-70312407D01*
X110385403Y-70328606D01*
X110339983Y-70347421D01*
X110298970Y-70355579D01*
X110274389Y-70358000D01*
X109728000Y-70358000D01*
X109728000Y-74168000D01*
X112014000Y-74168000D01*
X112014000Y-73367611D01*
X112016421Y-73343028D01*
X112024579Y-73302017D01*
X112043394Y-73256597D01*
X112059593Y-73232354D01*
X112094354Y-73197593D01*
X112118597Y-73181394D01*
X112164017Y-73162579D01*
X112205030Y-73154421D01*
X112229611Y-73152000D01*
X114300000Y-73152000D01*
X115247709Y-72204291D01*
X115266796Y-72188626D01*
X115301570Y-72165391D01*
X115346985Y-72146579D01*
X115387998Y-72138421D01*
X115412579Y-72136000D01*
X119926389Y-72136000D01*
X119950970Y-72138421D01*
X119991983Y-72146579D01*
X120037403Y-72165394D01*
X120061646Y-72181593D01*
X120096407Y-72216354D01*
X120112606Y-72240597D01*
X120131421Y-72286017D01*
X120139579Y-72327028D01*
X120142000Y-72351611D01*
X120142000Y-76746389D01*
X120139579Y-76770972D01*
X120131421Y-76811983D01*
X120112606Y-76857403D01*
X120096407Y-76881646D01*
X120061646Y-76916407D01*
X120037403Y-76932606D01*
X119991983Y-76951421D01*
X119950970Y-76959579D01*
X119926389Y-76962000D01*
X99783611Y-76962000D01*
X99759030Y-76959579D01*
X99718017Y-76951421D01*
X99672597Y-76932606D01*
X99648354Y-76916407D01*
X99613593Y-76881646D01*
X99597394Y-76857403D01*
X99578579Y-76811983D01*
X99570421Y-76770972D01*
X99568000Y-76746389D01*
X99568000Y-72351611D01*
X99570421Y-72327028D01*
X99578579Y-72286017D01*
X99597394Y-72240597D01*
X99613593Y-72216354D01*
X99648354Y-72181593D01*
X99672597Y-72165394D01*
X99718017Y-72146579D01*
X99759030Y-72138421D01*
X99783611Y-72136000D01*
X104432389Y-72136000D01*
X104456970Y-72138421D01*
X104497983Y-72146579D01*
X104543403Y-72165394D01*
X104567646Y-72181593D01*
X104602407Y-72216354D01*
X104618606Y-72240597D01*
X104637421Y-72286017D01*
X104645579Y-72327028D01*
X104648000Y-72351611D01*
X104648000Y-73152000D01*
X106210389Y-73152000D01*
X106234970Y-73154421D01*
X106275983Y-73162579D01*
X106321403Y-73181394D01*
X106345646Y-73197593D01*
X106380407Y-73232354D01*
X106396606Y-73256597D01*
X106415421Y-73302017D01*
X106423579Y-73343028D01*
X106426000Y-73367611D01*
X106426000Y-74168000D01*
X108712000Y-74168000D01*
X108712000Y-70358000D01*
X108419611Y-70358000D01*
X108395030Y-70355579D01*
X108354017Y-70347421D01*
X108308597Y-70328606D01*
X108284354Y-70312407D01*
X108249593Y-70277646D01*
X108233394Y-70253403D01*
X108214579Y-70207983D01*
X108206421Y-70166972D01*
X108204000Y-70142389D01*
X108204000Y-67271611D01*
X108206421Y-67247028D01*
X108214579Y-67206017D01*
X108233394Y-67160597D01*
X108249593Y-67136354D01*
X108284354Y-67101593D01*
X108308597Y-67085394D01*
X108354017Y-67066579D01*
X108395030Y-67058421D01*
X108419611Y-67056000D01*
X113322389Y-67056000D01*
X113346970Y-67058421D01*
G37*
%TD.AperFunction*%
%TD*%
%TA.AperFunction,Conductor*%
%TO.N,+5VA*%
G36*
X106232517Y-68327933D02*
G01*
X106280935Y-68337564D01*
X106317200Y-68352586D01*
X106349846Y-68374400D01*
X106377600Y-68402154D01*
X106399414Y-68434800D01*
X106414436Y-68471065D01*
X106424067Y-68519483D01*
X106426000Y-68539109D01*
X106426000Y-69342000D01*
X106867478Y-69783478D01*
X106879989Y-69798723D01*
X106907415Y-69839769D01*
X106922436Y-69876033D01*
X106932067Y-69924451D01*
X106934000Y-69944077D01*
X106934000Y-71729600D01*
X107294661Y-71729600D01*
X107314286Y-71731533D01*
X107325181Y-71733700D01*
X107351426Y-71733700D01*
X108011500Y-71733699D01*
X108031124Y-71735632D01*
X108058935Y-71741164D01*
X108095199Y-71756185D01*
X108127845Y-71777998D01*
X108155601Y-71805754D01*
X108165355Y-71820352D01*
X108182309Y-71876242D01*
X108182309Y-73513358D01*
X108165355Y-73569248D01*
X108155601Y-73583846D01*
X108127845Y-73611602D01*
X108095199Y-73633415D01*
X108058935Y-73648436D01*
X108010517Y-73658067D01*
X107990891Y-73660000D01*
X107147109Y-73660000D01*
X107127483Y-73658067D01*
X107079065Y-73648436D01*
X107042800Y-73633414D01*
X107010154Y-73611600D01*
X106982400Y-73583846D01*
X106960586Y-73551200D01*
X106945564Y-73514935D01*
X106935933Y-73466517D01*
X106934000Y-73446891D01*
X106934000Y-72644000D01*
X105369109Y-72644000D01*
X105349483Y-72642067D01*
X105301065Y-72632436D01*
X105264800Y-72617414D01*
X105232154Y-72595600D01*
X105204400Y-72567846D01*
X105182586Y-72535200D01*
X105167564Y-72498935D01*
X105157933Y-72450517D01*
X105156000Y-72430891D01*
X105156000Y-71374000D01*
X99781109Y-71374000D01*
X99761483Y-71372067D01*
X99713065Y-71362436D01*
X99676800Y-71347414D01*
X99644154Y-71325600D01*
X99616400Y-71297846D01*
X99594586Y-71265200D01*
X99579564Y-71228935D01*
X99569933Y-71180517D01*
X99568000Y-71160891D01*
X99568000Y-68539109D01*
X99569933Y-68519483D01*
X99579564Y-68471065D01*
X99594586Y-68434800D01*
X99616400Y-68402154D01*
X99644154Y-68374400D01*
X99676800Y-68352586D01*
X99713065Y-68337564D01*
X99761483Y-68327933D01*
X99781109Y-68326000D01*
X106212891Y-68326000D01*
X106232517Y-68327933D01*
G37*
%TD.AperFunction*%
%TD*%
%TA.AperFunction,Conductor*%
%TO.N,/LED+*%
G36*
X119948517Y-62739933D02*
G01*
X119996935Y-62749564D01*
X120033200Y-62764586D01*
X120065846Y-62786400D01*
X120093600Y-62814154D01*
X120115414Y-62846800D01*
X120130436Y-62883065D01*
X120140067Y-62931483D01*
X120142000Y-62951109D01*
X120142000Y-67399686D01*
X120140044Y-67419429D01*
X120130299Y-67468120D01*
X120115099Y-67504568D01*
X120093042Y-67537323D01*
X120064991Y-67565108D01*
X120032024Y-67586853D01*
X119995439Y-67601701D01*
X119946656Y-67610983D01*
X119926894Y-67612751D01*
X114900821Y-67564884D01*
X114881449Y-67562813D01*
X114833669Y-67552954D01*
X114797909Y-67537942D01*
X114757408Y-67510740D01*
X114742363Y-67498363D01*
X113792000Y-66548000D01*
X106172000Y-66548000D01*
X106107542Y-66633944D01*
X106107541Y-66633945D01*
X105477990Y-67473347D01*
X105461969Y-67490223D01*
X105417505Y-67527331D01*
X105376159Y-67548004D01*
X105319799Y-67561309D01*
X105296686Y-67564000D01*
X99781109Y-67564000D01*
X99761483Y-67562067D01*
X99713065Y-67552436D01*
X99676800Y-67537414D01*
X99644154Y-67515600D01*
X99616400Y-67487846D01*
X99594586Y-67455200D01*
X99579564Y-67418935D01*
X99569933Y-67370517D01*
X99568000Y-67350891D01*
X99568000Y-62951109D01*
X99569933Y-62931483D01*
X99579564Y-62883065D01*
X99594586Y-62846800D01*
X99616400Y-62814154D01*
X99644154Y-62786400D01*
X99676800Y-62764586D01*
X99713065Y-62749564D01*
X99761483Y-62739933D01*
X99781109Y-62738000D01*
X119928891Y-62738000D01*
X119948517Y-62739933D01*
G37*
%TD.AperFunction*%
%TD*%
M02*
